<?xml version="1.0" encoding="UTF-8" standalone="no"?>
<!DOCTYPE svg PUBLIC "-//W3C//DTD SVG 1.1//EN"
 "http://www.w3.org/Graphics/SVG/1.1/DTD/svg11.dtd">
<!-- Generated by graphviz version 2.40.1 (20161225.0304)
 -->
<!-- Title: Architecture Pages: 1 -->
<svg width="748pt" height="1988pt"
 viewBox="0.00 0.00 748.35 1988.00" xmlns="http://www.w3.org/2000/svg" xmlns:xlink="http://www.w3.org/1999/xlink">
<g id="graph0" class="graph" transform="scale(1 1) rotate(0) translate(4 1984)">
<title>Architecture</title>
<polygon fill="#ffffff" stroke="transparent" points="-4,4 -4,-1984 744.3469,-1984 744.3469,4 -4,4"/>
<!-- Source image upload -->
<g id="node1" class="node">
<title>Source image upload</title>
<polygon fill="none" stroke="#000000" points="438.9981,-1980 304.6219,-1980 304.6219,-1944 438.9981,-1944 438.9981,-1980"/>
<text text-anchor="middle" x="371.81" y="-1957.8" font-family="Times,serif" font-size="14.00" fill="#000000">Source image upload</text>
</g>
<!-- Analyze images -->
<g id="node3" class="node">
<title>Analyze images</title>
<polygon fill="none" stroke="#000000" points="564.6062,-1908 459.0138,-1908 459.0138,-1872 564.6062,-1872 564.6062,-1908"/>
<text text-anchor="middle" x="511.81" y="-1885.8" font-family="Times,serif" font-size="14.00" fill="#000000">Analyze images</text>
</g>
<!-- Source image upload&#45;&gt;Analyze images -->
<g id="edge1" class="edge">
<title>Source image upload&#45;&gt;Analyze images</title>
<path fill="none" stroke="#000000" d="M407.1379,-1943.8314C425.4593,-1934.4089 448.0202,-1922.8062 467.4995,-1912.7883"/>
<polygon fill="#000000" stroke="#000000" points="469.2012,-1915.8489 476.4934,-1908.1628 465.9998,-1909.6239 469.2012,-1915.8489"/>
</g>
<!-- Decode tiff -->
<g id="node4" class="node">
<title>Decode tiff</title>
<polygon fill="none" stroke="#000000" points="418.6636,-1908 338.9564,-1908 338.9564,-1872 418.6636,-1872 418.6636,-1908"/>
<text text-anchor="middle" x="378.81" y="-1885.8" font-family="Times,serif" font-size="14.00" fill="#000000">Decode tiff</text>
</g>
<!-- Source image upload&#45;&gt;Decode tiff -->
<g id="edge3" class="edge">
<title>Source image upload&#45;&gt;Decode tiff</title>
<path fill="none" stroke="#000000" d="M373.5764,-1943.8314C374.325,-1936.131 375.2153,-1926.9743 376.0473,-1918.4166"/>
<polygon fill="#000000" stroke="#000000" points="379.5356,-1918.7051 377.0198,-1908.4133 372.5685,-1918.0276 379.5356,-1918.7051"/>
</g>
<!-- Crop image upload -->
<g id="node2" class="node">
<title>Crop image upload</title>
<polygon fill="none" stroke="#000000" points="580.6232,-1980 456.9968,-1980 456.9968,-1944 580.6232,-1944 580.6232,-1980"/>
<text text-anchor="middle" x="518.81" y="-1957.8" font-family="Times,serif" font-size="14.00" fill="#000000">Crop image upload</text>
</g>
<!-- Crop image upload&#45;&gt;Analyze images -->
<g id="edge2" class="edge">
<title>Crop image upload&#45;&gt;Analyze images</title>
<path fill="none" stroke="#000000" d="M517.0436,-1943.8314C516.295,-1936.131 515.4047,-1926.9743 514.5727,-1918.4166"/>
<polygon fill="#000000" stroke="#000000" points="518.0515,-1918.0276 513.6002,-1908.4133 511.0844,-1918.7051 518.0515,-1918.0276"/>
</g>
<!-- Crop image upload&#45;&gt;Decode tiff -->
<g id="edge4" class="edge">
<title>Crop image upload&#45;&gt;Decode tiff</title>
<path fill="none" stroke="#000000" d="M483.4821,-1943.8314C465.1607,-1934.4089 442.5998,-1922.8062 423.1205,-1912.7883"/>
<polygon fill="#000000" stroke="#000000" points="424.6202,-1909.6239 414.1266,-1908.1628 421.4188,-1915.8489 424.6202,-1909.6239"/>
</g>
<!-- Update DOM -->
<g id="node10" class="node">
<title>Update DOM</title>
<polygon fill="none" stroke="#000000" points="557.8951,-1836 465.7249,-1836 465.7249,-1800 557.8951,-1800 557.8951,-1836"/>
<text text-anchor="middle" x="511.81" y="-1813.8" font-family="Times,serif" font-size="14.00" fill="#000000">Update DOM</text>
</g>
<!-- Analyze images&#45;&gt;Update DOM -->
<g id="edge10" class="edge">
<title>Analyze images&#45;&gt;Update DOM</title>
<path fill="none" stroke="#000000" d="M511.81,-1871.8314C511.81,-1864.131 511.81,-1854.9743 511.81,-1846.4166"/>
<polygon fill="#000000" stroke="#000000" points="515.3101,-1846.4132 511.81,-1836.4133 508.3101,-1846.4133 515.3101,-1846.4132"/>
</g>
<!-- Update images object -->
<g id="node5" class="node">
<title>Update images object</title>
<polygon fill="none" stroke="#000000" points="447.6021,-1836 310.0179,-1836 310.0179,-1800 447.6021,-1800 447.6021,-1836"/>
<text text-anchor="middle" x="378.81" y="-1813.8" font-family="Times,serif" font-size="14.00" fill="#000000">Update images object</text>
</g>
<!-- Decode tiff&#45;&gt;Update images object -->
<g id="edge5" class="edge">
<title>Decode tiff&#45;&gt;Update images object</title>
<path fill="none" stroke="#000000" d="M378.81,-1871.8314C378.81,-1864.131 378.81,-1854.9743 378.81,-1846.4166"/>
<polygon fill="#000000" stroke="#000000" points="382.3101,-1846.4132 378.81,-1836.4133 375.3101,-1846.4133 382.3101,-1846.4132"/>
</g>
<!-- Images object -->
<g id="node6" class="node">
<title>Images object</title>
<polygon fill="none" stroke="#000000" points="432.9455,-1764 338.6745,-1764 338.6745,-1728 432.9455,-1728 432.9455,-1764"/>
<text text-anchor="middle" x="385.81" y="-1741.8" font-family="Times,serif" font-size="14.00" fill="#000000">Images object</text>
</g>
<!-- Update images object&#45;&gt;Images object -->
<g id="edge6" class="edge">
<title>Update images object&#45;&gt;Images object</title>
<path fill="none" stroke="#000000" d="M380.5764,-1799.8314C381.325,-1792.131 382.2153,-1782.9743 383.0473,-1774.4166"/>
<polygon fill="#000000" stroke="#000000" points="386.5356,-1774.7051 384.0198,-1764.4133 379.5685,-1774.0276 386.5356,-1774.7051"/>
</g>
<!-- Validate images -->
<g id="node7" class="node">
<title>Validate images</title>
<polygon fill="none" stroke="#000000" points="556.888,-1764 450.732,-1764 450.732,-1728 556.888,-1728 556.888,-1764"/>
<text text-anchor="middle" x="503.81" y="-1741.8" font-family="Times,serif" font-size="14.00" fill="#000000">Validate images</text>
</g>
<!-- Images object&#45;&gt;Validate images -->
<g id="edge8" class="edge">
<title>Images object&#45;&gt;Validate images</title>
<path fill="none" stroke="#000000" d="M433.2866,-1746C435.7272,-1746 438.1678,-1746 440.6084,-1746"/>
<polygon fill="#000000" stroke="#000000" points="440.642,-1749.5001 450.6419,-1746 440.6419,-1742.5001 440.642,-1749.5001"/>
</g>
<!-- Search for crop -->
<g id="node9" class="node">
<title>Search for crop</title>
<polygon fill="none" stroke="#000000" points="441.0938,-1692 338.5262,-1692 338.5262,-1656 441.0938,-1656 441.0938,-1692"/>
<text text-anchor="middle" x="389.81" y="-1669.8" font-family="Times,serif" font-size="14.00" fill="#000000">Search for crop</text>
</g>
<!-- Images object&#45;&gt;Search for crop -->
<g id="edge9" class="edge">
<title>Images object&#45;&gt;Search for crop</title>
<path fill="none" stroke="#000000" d="M386.8194,-1727.8314C387.2472,-1720.131 387.7559,-1710.9743 388.2313,-1702.4166"/>
<polygon fill="#000000" stroke="#000000" points="391.7269,-1702.592 388.787,-1692.4133 384.7376,-1702.2037 391.7269,-1702.592"/>
</g>
<!-- Image error -->
<g id="node8" class="node">
<title>Image error</title>
<polygon fill="none" stroke="#000000" points="544.4874,-1692 463.1326,-1692 463.1326,-1656 544.4874,-1656 544.4874,-1692"/>
<text text-anchor="middle" x="503.81" y="-1669.8" font-family="Times,serif" font-size="14.00" fill="#000000">Image error</text>
</g>
<!-- Validate images&#45;&gt;Image error -->
<g id="edge7" class="edge">
<title>Validate images&#45;&gt;Image error</title>
<path fill="none" stroke="#000000" d="M503.81,-1727.8314C503.81,-1720.131 503.81,-1710.9743 503.81,-1702.4166"/>
<polygon fill="#000000" stroke="#000000" points="507.3101,-1702.4132 503.81,-1692.4133 500.3101,-1702.4133 507.3101,-1702.4132"/>
</g>
<!-- Validate images&#45;&gt;Search for crop -->
<g id="edge12" class="edge">
<title>Validate images&#45;&gt;Search for crop</title>
<path fill="none" stroke="#000000" d="M475.043,-1727.8314C460.5967,-1718.7074 442.9135,-1707.539 427.406,-1697.7449"/>
<polygon fill="#000000" stroke="#000000" points="428.8917,-1694.5436 418.5678,-1692.1628 425.1537,-1700.462 428.8917,-1694.5436"/>
</g>
<!-- Crop image -->
<g id="node12" class="node">
<title>Crop image</title>
<polygon fill="none" stroke="#000000" points="430.5181,-1548 349.1019,-1548 349.1019,-1512 430.5181,-1512 430.5181,-1548"/>
<text text-anchor="middle" x="389.81" y="-1525.8" font-family="Times,serif" font-size="14.00" fill="#000000">Crop image</text>
</g>
<!-- Search for crop&#45;&gt;Crop image -->
<g id="edge15" class="edge">
<title>Search for crop&#45;&gt;Crop image</title>
<path fill="none" stroke="#000000" d="M389.81,-1655.7623C389.81,-1631.201 389.81,-1587.2474 389.81,-1558.3541"/>
<polygon fill="#000000" stroke="#000000" points="393.3101,-1558.0896 389.81,-1548.0896 386.3101,-1558.0897 393.3101,-1558.0896"/>
</g>
<!-- Is image rotated -->
<g id="node13" class="node">
<title>Is image rotated</title>
<polygon fill="none" stroke="#000000" points="338.9968,-1620 232.6232,-1620 232.6232,-1584 338.9968,-1584 338.9968,-1620"/>
<text text-anchor="middle" x="285.81" y="-1597.8" font-family="Times,serif" font-size="14.00" fill="#000000">Is image rotated</text>
</g>
<!-- Search for crop&#45;&gt;Is image rotated -->
<g id="edge13" class="edge">
<title>Search for crop&#45;&gt;Is image rotated</title>
<path fill="none" stroke="#000000" d="M363.5664,-1655.8314C350.5105,-1646.7927 334.5565,-1635.7476 320.5053,-1626.0198"/>
<polygon fill="#000000" stroke="#000000" points="322.2594,-1622.9773 312.0452,-1620.1628 318.2749,-1628.7326 322.2594,-1622.9773"/>
</g>
<!-- Update DOM&#45;&gt;Validate images -->
<g id="edge11" class="edge">
<title>Update DOM&#45;&gt;Validate images</title>
<path fill="none" stroke="#000000" d="M509.7913,-1799.8314C508.9357,-1792.131 507.9183,-1782.9743 506.9674,-1774.4166"/>
<polygon fill="#000000" stroke="#000000" points="510.4389,-1773.9656 505.8559,-1764.4133 503.4817,-1774.7386 510.4389,-1773.9656"/>
</g>
<!-- Correct rotated image -->
<g id="node11" class="node">
<title>Correct rotated image</title>
<polygon fill="none" stroke="#000000" points="330.869,-1548 192.751,-1548 192.751,-1512 330.869,-1512 330.869,-1548"/>
<text text-anchor="middle" x="261.81" y="-1525.8" font-family="Times,serif" font-size="14.00" fill="#000000">Correct rotated image</text>
</g>
<!-- Find crop in image -->
<g id="node14" class="node">
<title>Find crop in image</title>
<polygon fill="none" stroke="#000000" points="322.9595,-1476 200.6605,-1476 200.6605,-1440 322.9595,-1440 322.9595,-1476"/>
<text text-anchor="middle" x="261.81" y="-1453.8" font-family="Times,serif" font-size="14.00" fill="#000000">Find crop in image</text>
</g>
<!-- Correct rotated image&#45;&gt;Find crop in image -->
<g id="edge16" class="edge">
<title>Correct rotated image&#45;&gt;Find crop in image</title>
<path fill="none" stroke="#000000" d="M261.81,-1511.8314C261.81,-1504.131 261.81,-1494.9743 261.81,-1486.4166"/>
<polygon fill="#000000" stroke="#000000" points="265.3101,-1486.4132 261.81,-1476.4133 258.3101,-1486.4133 265.3101,-1486.4132"/>
</g>
<!-- Crop image&#45;&gt;Find crop in image -->
<g id="edge17" class="edge">
<title>Crop image&#45;&gt;Find crop in image</title>
<path fill="none" stroke="#000000" d="M357.5102,-1511.8314C340.9866,-1502.5368 320.6914,-1491.1208 303.0493,-1481.1971"/>
<polygon fill="#000000" stroke="#000000" points="304.5312,-1478.015 294.0995,-1476.1628 301.0993,-1484.116 304.5312,-1478.015"/>
</g>
<!-- Is image rotated&#45;&gt;Correct rotated image -->
<g id="edge14" class="edge">
<title>Is image rotated&#45;&gt;Correct rotated image</title>
<path fill="none" stroke="#000000" d="M279.7538,-1583.8314C277.1588,-1576.0463 274.0676,-1566.7729 271.1882,-1558.1347"/>
<polygon fill="#000000" stroke="#000000" points="274.4305,-1556.7933 267.9478,-1548.4133 267.7897,-1559.0069 274.4305,-1556.7933"/>
</g>
<!-- Run pipeline -->
<g id="node16" class="node">
<title>Run pipeline</title>
<polygon fill="none" stroke="#000000" points="370.7476,-1404 282.8724,-1404 282.8724,-1368 370.7476,-1368 370.7476,-1404"/>
<text text-anchor="middle" x="326.81" y="-1381.8" font-family="Times,serif" font-size="14.00" fill="#000000">Run pipeline</text>
</g>
<!-- Find crop in image&#45;&gt;Run pipeline -->
<g id="edge19" class="edge">
<title>Find crop in image&#45;&gt;Run pipeline</title>
<path fill="none" stroke="#000000" d="M278.2122,-1439.8314C285.8515,-1431.3694 295.0783,-1421.1489 303.4307,-1411.8971"/>
<polygon fill="#000000" stroke="#000000" points="306.0838,-1414.1813 310.1869,-1404.4133 300.8879,-1409.4906 306.0838,-1414.1813"/>
</g>
<!-- Pipeline config -->
<g id="node15" class="node">
<title>Pipeline config</title>
<polygon fill="none" stroke="#000000" points="442.4595,-1476 341.1605,-1476 341.1605,-1440 442.4595,-1440 442.4595,-1476"/>
<text text-anchor="middle" x="391.81" y="-1453.8" font-family="Times,serif" font-size="14.00" fill="#000000">Pipeline config</text>
</g>
<!-- Pipeline config&#45;&gt;Run pipeline -->
<g id="edge18" class="edge">
<title>Pipeline config&#45;&gt;Run pipeline</title>
<path fill="none" stroke="#000000" d="M375.4078,-1439.8314C367.7685,-1431.3694 358.5417,-1421.1489 350.1893,-1411.8971"/>
<polygon fill="#000000" stroke="#000000" points="352.7321,-1409.4906 343.4331,-1404.4133 347.5362,-1414.1813 352.7321,-1409.4906"/>
</g>
<!-- optimized scan -->
<g id="node18" class="node">
<title>optimized scan</title>
<polygon fill="none" stroke="#000000" points="277.1761,-1332 176.4439,-1332 176.4439,-1296 277.1761,-1296 277.1761,-1332"/>
<text text-anchor="middle" x="226.81" y="-1309.8" font-family="Times,serif" font-size="14.00" fill="#000000">optimized scan</text>
</g>
<!-- Run pipeline&#45;&gt;optimized scan -->
<g id="edge21" class="edge">
<title>Run pipeline&#45;&gt;optimized scan</title>
<path fill="none" stroke="#000000" d="M301.5758,-1367.8314C289.022,-1358.7927 273.6817,-1347.7476 260.1709,-1338.0198"/>
<polygon fill="#000000" stroke="#000000" points="262.1966,-1335.1655 252.0361,-1332.1628 258.1064,-1340.8463 262.1966,-1335.1655"/>
</g>
<!-- Skip pixels -->
<g id="node17" class="node">
<title>Skip pixels</title>
<polygon fill="none" stroke="#000000" points="538.9245,-1476 460.6955,-1476 460.6955,-1440 538.9245,-1440 538.9245,-1476"/>
<text text-anchor="middle" x="499.81" y="-1453.8" font-family="Times,serif" font-size="14.00" fill="#000000">Skip pixels</text>
</g>
<!-- Skip pixels&#45;&gt;Run pipeline -->
<g id="edge20" class="edge">
<title>Skip pixels&#45;&gt;Run pipeline</title>
<path fill="none" stroke="#000000" d="M460.5536,-1441.6621C436.5808,-1431.685 405.6245,-1418.8014 379.5325,-1407.9423"/>
<polygon fill="#000000" stroke="#000000" points="380.7389,-1404.6534 370.1617,-1404.0423 378.0492,-1411.1161 380.7389,-1404.6534"/>
</g>
<!-- Run optimized scan -->
<g id="node22" class="node">
<title>Run optimized scan</title>
<polygon fill="none" stroke="#000000" points="343.5122,-1260 216.1078,-1260 216.1078,-1224 343.5122,-1224 343.5122,-1260"/>
<text text-anchor="middle" x="279.81" y="-1237.8" font-family="Times,serif" font-size="14.00" fill="#000000">Run optimized scan</text>
</g>
<!-- optimized scan&#45;&gt;Run optimized scan -->
<g id="edge24" class="edge">
<title>optimized scan&#45;&gt;Run optimized scan</title>
<path fill="none" stroke="#000000" d="M240.1841,-1295.8314C246.2262,-1287.6232 253.4863,-1277.7606 260.1321,-1268.7323"/>
<polygon fill="#000000" stroke="#000000" points="263.1463,-1270.5415 266.2558,-1260.4133 257.5089,-1266.3918 263.1463,-1270.5415"/>
</g>
<!-- find all close matches -->
<g id="node23" class="node">
<title>find all close matches</title>
<polygon fill="none" stroke="#000000" points="359.4914,-1044 222.1286,-1044 222.1286,-1008 359.4914,-1008 359.4914,-1044"/>
<text text-anchor="middle" x="290.81" y="-1021.8" font-family="Times,serif" font-size="14.00" fill="#000000">find all close matches</text>
</g>
<!-- optimized scan&#45;&gt;find all close matches -->
<g id="edge25" class="edge">
<title>optimized scan&#45;&gt;find all close matches</title>
<path fill="none" stroke="#000000" d="M217.2443,-1295.7879C196.9089,-1254.3304 154.4887,-1151.0183 195.81,-1080 203.3294,-1067.0766 215.2229,-1056.9924 228.0846,-1049.224"/>
<polygon fill="#000000" stroke="#000000" points="230.0632,-1052.1286 237.1016,-1044.2095 226.661,-1046.0109 230.0632,-1052.1286"/>
</g>
<!-- update progress bar -->
<g id="node34" class="node">
<title>update progress bar</title>
<polygon fill="none" stroke="#000000" points="125.4306,-540 .1894,-540 .1894,-504 125.4306,-504 125.4306,-540"/>
<text text-anchor="middle" x="62.81" y="-517.8" font-family="Times,serif" font-size="14.00" fill="#000000">update progress bar</text>
</g>
<!-- optimized scan&#45;&gt;update progress bar -->
<g id="edge41" class="edge">
<title>optimized scan&#45;&gt;update progress bar</title>
<path fill="none" stroke="#000000" d="M176.482,-1296.875C125.0932,-1275.8175 52.81,-1234.699 52.81,-1170 52.81,-1170 52.81,-1170 52.81,-666 52.81,-625.7793 56.7405,-579.391 59.6732,-550.3773"/>
<polygon fill="#000000" stroke="#000000" points="63.1828,-550.4662 60.738,-540.1573 56.2204,-549.7407 63.1828,-550.4662"/>
</g>
<!-- Check if the scan found anything -->
<g id="node19" class="node">
<title>Check if the scan found anything</title>
<polygon fill="none" stroke="#000000" points="456.7629,-756 254.8571,-756 254.8571,-720 456.7629,-720 456.7629,-756"/>
<text text-anchor="middle" x="355.81" y="-733.8" font-family="Times,serif" font-size="14.00" fill="#000000">Check if the scan found anything</text>
</g>
<!-- Determine the best result -->
<g id="node20" class="node">
<title>Determine the best result</title>
<polygon fill="none" stroke="#000000" points="347.1492,-684 190.4708,-684 190.4708,-648 347.1492,-648 347.1492,-684"/>
<text text-anchor="middle" x="268.81" y="-661.8" font-family="Times,serif" font-size="14.00" fill="#000000">Determine the best result</text>
</g>
<!-- Check if the scan found anything&#45;&gt;Determine the best result -->
<g id="edge22" class="edge">
<title>Check if the scan found anything&#45;&gt;Determine the best result</title>
<path fill="none" stroke="#000000" d="M333.8562,-719.8314C323.1405,-710.9632 310.0911,-700.1637 298.501,-690.5718"/>
<polygon fill="#000000" stroke="#000000" points="300.6922,-687.8422 290.7567,-684.1628 296.2292,-693.2349 300.6922,-687.8422"/>
</g>
<!-- No match found -->
<g id="node21" class="node">
<title>No match found</title>
<polygon fill="none" stroke="#000000" points="472.2876,-684 365.3324,-684 365.3324,-648 472.2876,-648 472.2876,-684"/>
<text text-anchor="middle" x="418.81" y="-661.8" font-family="Times,serif" font-size="14.00" fill="#000000">No match found</text>
</g>
<!-- Check if the scan found anything&#45;&gt;No match found -->
<g id="edge23" class="edge">
<title>Check if the scan found anything&#45;&gt;No match found</title>
<path fill="none" stroke="#000000" d="M371.7076,-719.8314C379.0378,-711.454 387.876,-701.3531 395.9069,-692.1749"/>
<polygon fill="#000000" stroke="#000000" points="398.7473,-694.2438 402.6984,-684.4133 393.4793,-689.6343 398.7473,-694.2438"/>
</g>
<!-- match scans -->
<g id="node29" class="node">
<title>match scans</title>
<polygon fill="none" stroke="#000000" points="305.8388,-612 221.7812,-612 221.7812,-576 305.8388,-576 305.8388,-612"/>
<text text-anchor="middle" x="263.81" y="-589.8" font-family="Times,serif" font-size="14.00" fill="#000000">match scans</text>
</g>
<!-- Determine the best result&#45;&gt;match scans -->
<g id="edge33" class="edge">
<title>Determine the best result&#45;&gt;match scans</title>
<path fill="none" stroke="#000000" d="M267.5483,-647.8314C267.0135,-640.131 266.3777,-630.9743 265.7834,-622.4166"/>
<polygon fill="#000000" stroke="#000000" points="269.2732,-622.1467 265.0887,-612.4133 262.29,-622.6317 269.2732,-622.1467"/>
</g>
<!-- Reslice image -->
<g id="node38" class="node">
<title>Reslice image</title>
<polygon fill="none" stroke="#000000" points="612.2266,-612 517.3934,-612 517.3934,-576 612.2266,-576 612.2266,-612"/>
<text text-anchor="middle" x="564.81" y="-589.8" font-family="Times,serif" font-size="14.00" fill="#000000">Reslice image</text>
</g>
<!-- No match found&#45;&gt;Reslice image -->
<g id="edge45" class="edge">
<title>No match found&#45;&gt;Reslice image</title>
<path fill="none" stroke="#000000" d="M455.652,-647.8314C474.9182,-638.3302 498.6799,-626.6121 519.1092,-616.5374"/>
<polygon fill="#000000" stroke="#000000" points="520.8123,-619.6 528.233,-612.038 517.7162,-613.3219 520.8123,-619.6"/>
</g>
<!-- There is no match -->
<g id="node39" class="node">
<title>There is no match</title>
<polygon fill="none" stroke="#000000" points="443.9984,-612 327.6216,-612 327.6216,-576 443.9984,-576 443.9984,-612"/>
<text text-anchor="middle" x="385.81" y="-589.8" font-family="Times,serif" font-size="14.00" fill="#000000">There is no match</text>
</g>
<!-- No match found&#45;&gt;There is no match -->
<g id="edge47" class="edge">
<title>No match found&#45;&gt;There is no match</title>
<path fill="none" stroke="#000000" d="M410.4827,-647.8314C406.837,-639.8771 402.4791,-630.369 398.4473,-621.5723"/>
<polygon fill="#000000" stroke="#000000" points="401.5977,-620.0456 394.2494,-612.4133 395.2343,-622.9622 401.5977,-620.0456"/>
</g>
<!-- Scanning kernel -->
<g id="node30" class="node">
<title>Scanning kernel</title>
<polygon fill="none" stroke="#000000" points="352.8936,-1188 246.7264,-1188 246.7264,-1152 352.8936,-1152 352.8936,-1188"/>
<text text-anchor="middle" x="299.81" y="-1165.8" font-family="Times,serif" font-size="14.00" fill="#000000">Scanning kernel</text>
</g>
<!-- Run optimized scan&#45;&gt;Scanning kernel -->
<g id="edge34" class="edge">
<title>Run optimized scan&#45;&gt;Scanning kernel</title>
<path fill="none" stroke="#000000" d="M284.8568,-1223.8314C287.0194,-1216.0463 289.5953,-1206.7729 291.9948,-1198.1347"/>
<polygon fill="#000000" stroke="#000000" points="295.391,-1198.9852 294.6952,-1188.4133 288.6464,-1197.1117 295.391,-1198.9852"/>
</g>
<!-- find all close matches&#45;&gt;Check if the scan found anything -->
<g id="edge28" class="edge">
<title>find all close matches&#45;&gt;Check if the scan found anything</title>
<path fill="none" stroke="#000000" d="M341.4562,-1007.8894C358.3063,-999.4602 375.6114,-987.7356 386.81,-972 433.3171,-906.6512 426.6987,-867.5671 399.81,-792 396.2222,-781.9169 389.8565,-772.3517 383.0624,-764.1515"/>
<polygon fill="#000000" stroke="#000000" points="385.4696,-761.591 376.2126,-756.4375 380.2353,-766.2389 385.4696,-761.591"/>
</g>
<!-- Threshold for crop to match -->
<g id="node26" class="node">
<title>Threshold for crop to match</title>
<polygon fill="none" stroke="#000000" points="377.3704,-972 204.2496,-972 204.2496,-936 377.3704,-936 377.3704,-972"/>
<text text-anchor="middle" x="290.81" y="-949.8" font-family="Times,serif" font-size="14.00" fill="#000000">Threshold for crop to match</text>
</g>
<!-- find all close matches&#45;&gt;Threshold for crop to match -->
<g id="edge29" class="edge">
<title>find all close matches&#45;&gt;Threshold for crop to match</title>
<path fill="none" stroke="#000000" d="M290.81,-1007.8314C290.81,-1000.131 290.81,-990.9743 290.81,-982.4166"/>
<polygon fill="#000000" stroke="#000000" points="294.3101,-982.4132 290.81,-972.4133 287.3101,-982.4133 294.3101,-982.4132"/>
</g>
<!-- convert position function -->
<g id="node24" class="node">
<title>convert position function</title>
<polygon fill="none" stroke="#000000" points="589.0634,-1116 432.5566,-1116 432.5566,-1080 589.0634,-1080 589.0634,-1116"/>
<text text-anchor="middle" x="510.81" y="-1093.8" font-family="Times,serif" font-size="14.00" fill="#000000">convert position function</text>
</g>
<!-- convert position function&#45;&gt;find all close matches -->
<g id="edge26" class="edge">
<title>convert position function&#45;&gt;find all close matches</title>
<path fill="none" stroke="#000000" d="M455.5787,-1079.9243C425.2419,-1069.9959 387.4435,-1057.6255 355.7045,-1047.2382"/>
<polygon fill="#000000" stroke="#000000" points="356.6567,-1043.8672 346.064,-1044.0831 354.4794,-1050.52 356.6567,-1043.8672"/>
</g>
<!-- threshold -->
<g id="node25" class="node">
<title>threshold</title>
<polygon fill="none" stroke="#000000" points="148.9111,-1116 80.7089,-1116 80.7089,-1080 148.9111,-1080 148.9111,-1116"/>
<text text-anchor="middle" x="114.81" y="-1093.8" font-family="Times,serif" font-size="14.00" fill="#000000">threshold</text>
</g>
<!-- threshold&#45;&gt;find all close matches -->
<g id="edge27" class="edge">
<title>threshold&#45;&gt;find all close matches</title>
<path fill="none" stroke="#000000" d="M149.1624,-1083.9468C174.1483,-1073.7252 208.4649,-1059.6866 237.0628,-1047.9875"/>
<polygon fill="#000000" stroke="#000000" points="238.59,-1051.1443 246.5203,-1044.1185 235.9396,-1044.6655 238.59,-1051.1443"/>
</g>
<!-- Find all matches under threshold -->
<g id="node27" class="node">
<title>Find all matches under threshold</title>
<polygon fill="none" stroke="#000000" points="390.3254,-900 191.2946,-900 191.2946,-864 390.3254,-864 390.3254,-900"/>
<text text-anchor="middle" x="290.81" y="-877.8" font-family="Times,serif" font-size="14.00" fill="#000000">Find all matches under threshold</text>
</g>
<!-- Threshold for crop to match&#45;&gt;Find all matches under threshold -->
<g id="edge30" class="edge">
<title>Threshold for crop to match&#45;&gt;Find all matches under threshold</title>
<path fill="none" stroke="#000000" d="M290.81,-935.8314C290.81,-928.131 290.81,-918.9743 290.81,-910.4166"/>
<polygon fill="#000000" stroke="#000000" points="294.3101,-910.4132 290.81,-900.4133 287.3101,-910.4133 294.3101,-910.4132"/>
</g>
<!-- Convert the matches to positions -->
<g id="node28" class="node">
<title>Convert the matches to positions</title>
<polygon fill="none" stroke="#000000" points="390.3394,-828 191.2806,-828 191.2806,-792 390.3394,-792 390.3394,-828"/>
<text text-anchor="middle" x="290.81" y="-805.8" font-family="Times,serif" font-size="14.00" fill="#000000">Convert the matches to positions</text>
</g>
<!-- Find all matches under threshold&#45;&gt;Convert the matches to positions -->
<g id="edge31" class="edge">
<title>Find all matches under threshold&#45;&gt;Convert the matches to positions</title>
<path fill="none" stroke="#000000" d="M290.81,-863.8314C290.81,-856.131 290.81,-846.9743 290.81,-838.4166"/>
<polygon fill="#000000" stroke="#000000" points="294.3101,-838.4132 290.81,-828.4133 287.3101,-838.4133 294.3101,-838.4132"/>
</g>
<!-- Convert the matches to positions&#45;&gt;Check if the scan found anything -->
<g id="edge32" class="edge">
<title>Convert the matches to positions&#45;&gt;Check if the scan found anything</title>
<path fill="none" stroke="#000000" d="M307.2122,-791.8314C314.8515,-783.3694 324.0783,-773.1489 332.4307,-763.8971"/>
<polygon fill="#000000" stroke="#000000" points="335.0838,-766.1813 339.1869,-756.4133 329.8879,-761.4906 335.0838,-766.1813"/>
</g>
<!-- confirm matches -->
<g id="node32" class="node">
<title>confirm matches</title>
<polygon fill="none" stroke="#000000" points="309.497,-540 200.123,-540 200.123,-504 309.497,-504 309.497,-540"/>
<text text-anchor="middle" x="254.81" y="-517.8" font-family="Times,serif" font-size="14.00" fill="#000000">confirm matches</text>
</g>
<!-- match scans&#45;&gt;confirm matches -->
<g id="edge37" class="edge">
<title>match scans&#45;&gt;confirm matches</title>
<path fill="none" stroke="#000000" d="M261.5389,-575.8314C260.5764,-568.131 259.4318,-558.9743 258.3621,-550.4166"/>
<polygon fill="#000000" stroke="#000000" points="261.8251,-549.9019 257.1117,-540.4133 254.8791,-550.7702 261.8251,-549.9019"/>
</g>
<!-- match scans&#45;&gt;update progress bar -->
<g id="edge40" class="edge">
<title>match scans&#45;&gt;update progress bar</title>
<path fill="none" stroke="#000000" d="M221.6738,-578.9064C192.9846,-568.6297 154.5849,-554.8746 122.7254,-543.4622"/>
<polygon fill="#000000" stroke="#000000" points="123.6605,-540.0795 113.0659,-540.0021 121.2998,-546.6694 123.6605,-540.0795"/>
</g>
<!-- Scan complete -->
<g id="node35" class="node">
<title>Scan complete</title>
<polygon fill="none" stroke="#000000" points="430.8374,-540 332.7826,-540 332.7826,-504 430.8374,-504 430.8374,-540"/>
<text text-anchor="middle" x="381.81" y="-517.8" font-family="Times,serif" font-size="14.00" fill="#000000">Scan complete</text>
</g>
<!-- match scans&#45;&gt;Scan complete -->
<g id="edge42" class="edge">
<title>match scans&#45;&gt;Scan complete</title>
<path fill="none" stroke="#000000" d="M293.5864,-575.8314C308.6793,-566.6221 327.1857,-555.3301 343.3443,-545.4706"/>
<polygon fill="#000000" stroke="#000000" points="345.3298,-548.3593 352.0431,-540.1628 341.6837,-542.3838 345.3298,-548.3593"/>
</g>
<!-- Run scanning kernel on each layer -->
<g id="node31" class="node">
<title>Run scanning kernel on each layer</title>
<polygon fill="none" stroke="#000000" points="414.5157,-1116 205.1043,-1116 205.1043,-1080 414.5157,-1080 414.5157,-1116"/>
<text text-anchor="middle" x="309.81" y="-1093.8" font-family="Times,serif" font-size="14.00" fill="#000000">Run scanning kernel on each layer</text>
</g>
<!-- Scanning kernel&#45;&gt;Run scanning kernel on each layer -->
<g id="edge35" class="edge">
<title>Scanning kernel&#45;&gt;Run scanning kernel on each layer</title>
<path fill="none" stroke="#000000" d="M302.3334,-1151.8314C303.4029,-1144.131 304.6747,-1134.9743 305.8632,-1126.4166"/>
<polygon fill="#000000" stroke="#000000" points="309.3436,-1126.7997 307.2526,-1116.4133 302.4101,-1125.8367 309.3436,-1126.7997"/>
</g>
<!-- Run scanning kernel on each layer&#45;&gt;find all close matches -->
<g id="edge36" class="edge">
<title>Run scanning kernel on each layer&#45;&gt;find all close matches</title>
<path fill="none" stroke="#000000" d="M305.0155,-1079.8314C302.9611,-1072.0463 300.514,-1062.7729 298.2344,-1054.1347"/>
<polygon fill="#000000" stroke="#000000" points="301.6048,-1053.1892 295.6691,-1044.4133 294.8365,-1054.9753 301.6048,-1053.1892"/>
</g>
<!-- match kernel -->
<g id="node33" class="node">
<title>match kernel</title>
<polygon fill="none" stroke="#000000" points="253.0013,-468 164.6187,-468 164.6187,-432 253.0013,-432 253.0013,-468"/>
<text text-anchor="middle" x="208.81" y="-445.8" font-family="Times,serif" font-size="14.00" fill="#000000">match kernel</text>
</g>
<!-- confirm matches&#45;&gt;match kernel -->
<g id="edge38" class="edge">
<title>confirm matches&#45;&gt;match kernel</title>
<path fill="none" stroke="#000000" d="M243.2023,-503.8314C238.0122,-495.7079 231.7868,-485.9637 226.0675,-477.0118"/>
<polygon fill="#000000" stroke="#000000" points="228.9074,-474.9559 220.574,-468.4133 223.0085,-478.7246 228.9074,-474.9559"/>
</g>
<!-- match kernel&#45;&gt;find all close matches -->
<g id="edge39" class="edge">
<title>match kernel&#45;&gt;find all close matches</title>
<path fill="none" stroke="#000000" d="M199.0546,-468.0482C185.5517,-494.7597 162.81,-546.7598 162.81,-594 162.81,-882 162.81,-882 162.81,-882 162.81,-924.4532 167.4606,-939.5303 194.81,-972 205.5219,-984.7174 220.0325,-995.0255 234.5253,-1003.0938"/>
<polygon fill="#000000" stroke="#000000" points="233.0342,-1006.2642 243.5128,-1007.8296 236.2974,-1000.0714 233.0342,-1006.2642"/>
</g>
<!-- Not found -->
<g id="node36" class="node">
<title>Not found</title>
<polygon fill="none" stroke="#000000" points="381.468,-468 308.152,-468 308.152,-432 381.468,-432 381.468,-468"/>
<text text-anchor="middle" x="344.81" y="-445.8" font-family="Times,serif" font-size="14.00" fill="#000000">Not found</text>
</g>
<!-- Scan complete&#45;&gt;Not found -->
<g id="edge43" class="edge">
<title>Scan complete&#45;&gt;Not found</title>
<path fill="none" stroke="#000000" d="M372.4733,-503.8314C368.3857,-495.8771 363.4996,-486.369 358.9791,-477.5723"/>
<polygon fill="#000000" stroke="#000000" points="361.9561,-475.7078 354.2724,-468.4133 355.7301,-478.9074 361.9561,-475.7078"/>
</g>
<!-- Calculate the position of the crop -->
<g id="node40" class="node">
<title>Calculate the position of the crop</title>
<polygon fill="none" stroke="#000000" points="639.0395,-468 436.5805,-468 436.5805,-432 639.0395,-432 639.0395,-468"/>
<text text-anchor="middle" x="537.81" y="-445.8" font-family="Times,serif" font-size="14.00" fill="#000000">Calculate the position of the crop</text>
</g>
<!-- Scan complete&#45;&gt;Calculate the position of the crop -->
<g id="edge49" class="edge">
<title>Scan complete&#45;&gt;Calculate the position of the crop</title>
<path fill="none" stroke="#000000" d="M421.1754,-503.8314C441.9467,-494.2446 467.6083,-482.4008 489.5681,-472.2655"/>
<polygon fill="#000000" stroke="#000000" points="491.1148,-475.4065 498.7277,-468.038 488.1814,-469.0508 491.1148,-475.4065"/>
</g>
<!-- Display the first layer of the source image -->
<g id="node37" class="node">
<title>Display the first layer of the source image</title>
<polygon fill="none" stroke="#000000" points="451.5003,-396 200.1197,-396 200.1197,-360 451.5003,-360 451.5003,-396"/>
<text text-anchor="middle" x="325.81" y="-373.8" font-family="Times,serif" font-size="14.00" fill="#000000">Display the first layer of the source image</text>
</g>
<!-- Not found&#45;&gt;Display the first layer of the source image -->
<g id="edge44" class="edge">
<title>Not found&#45;&gt;Display the first layer of the source image</title>
<path fill="none" stroke="#000000" d="M340.0155,-431.8314C337.9611,-424.0463 335.514,-414.7729 333.2344,-406.1347"/>
<polygon fill="#000000" stroke="#000000" points="336.6048,-405.1892 330.6691,-396.4133 329.8365,-406.9753 336.6048,-405.1892"/>
</g>
<!-- Reslice image&#45;&gt;Search for crop -->
<g id="edge46" class="edge">
<title>Reslice image&#45;&gt;Search for crop</title>
<path fill="none" stroke="#000000" d="M576.0932,-612.3327C591.3868,-638.9761 616.81,-690.4217 616.81,-738 616.81,-1530 616.81,-1530 616.81,-1530 616.81,-1570.7851 511.0002,-1623.0013 443.86,-1652.029"/>
<polygon fill="#000000" stroke="#000000" points="442.4741,-1648.815 434.6579,-1655.9674 445.2284,-1655.2503 442.4741,-1648.815"/>
</g>
<!-- There is no match&#45;&gt;Scan complete -->
<g id="edge48" class="edge">
<title>There is no match&#45;&gt;Scan complete</title>
<path fill="none" stroke="#000000" d="M384.8006,-575.8314C384.3728,-568.131 383.8641,-558.9743 383.3887,-550.4166"/>
<polygon fill="#000000" stroke="#000000" points="386.8824,-550.2037 382.833,-540.4133 379.8931,-550.592 386.8824,-550.2037"/>
</g>
<!-- Check if the image is nested -->
<g id="node41" class="node">
<title>Check if the image is nested</title>
<polygon fill="none" stroke="#000000" points="644.0424,-396 469.5776,-396 469.5776,-360 644.0424,-360 644.0424,-396"/>
<text text-anchor="middle" x="556.81" y="-373.8" font-family="Times,serif" font-size="14.00" fill="#000000">Check if the image is nested</text>
</g>
<!-- Calculate the position of the crop&#45;&gt;Check if the image is nested -->
<g id="edge50" class="edge">
<title>Calculate the position of the crop&#45;&gt;Check if the image is nested</title>
<path fill="none" stroke="#000000" d="M542.6045,-431.8314C544.6589,-424.0463 547.106,-414.7729 549.3856,-406.1347"/>
<polygon fill="#000000" stroke="#000000" points="552.7835,-406.9753 551.9509,-396.4133 546.0152,-405.1892 552.7835,-406.9753"/>
</g>
<!-- Nested in previous image -->
<g id="node42" class="node">
<title>Nested in previous image</title>
<polygon fill="none" stroke="#000000" points="566.9927,-324 408.6273,-324 408.6273,-288 566.9927,-288 566.9927,-324"/>
<text text-anchor="middle" x="487.81" y="-301.8" font-family="Times,serif" font-size="14.00" fill="#000000">Nested in previous image</text>
</g>
<!-- Check if the image is nested&#45;&gt;Nested in previous image -->
<g id="edge51" class="edge">
<title>Check if the image is nested&#45;&gt;Nested in previous image</title>
<path fill="none" stroke="#000000" d="M539.3984,-359.8314C531.289,-351.3694 521.4944,-341.1489 512.628,-331.8971"/>
<polygon fill="#000000" stroke="#000000" points="514.9021,-329.2115 505.456,-324.4133 509.8482,-334.0549 514.9021,-329.2115"/>
</g>
<!-- Not nested -->
<g id="node43" class="node">
<title>Not nested</title>
<polygon fill="none" stroke="#000000" points="663.0721,-324 586.5479,-324 586.5479,-288 663.0721,-288 663.0721,-324"/>
<text text-anchor="middle" x="624.81" y="-301.8" font-family="Times,serif" font-size="14.00" fill="#000000">Not nested</text>
</g>
<!-- Check if the image is nested&#45;&gt;Not nested -->
<g id="edge52" class="edge">
<title>Check if the image is nested&#45;&gt;Not nested</title>
<path fill="none" stroke="#000000" d="M573.9693,-359.8314C581.9611,-351.3694 591.6138,-341.1489 600.3516,-331.8971"/>
<polygon fill="#000000" stroke="#000000" points="603.098,-334.0866 607.4197,-324.4133 598.0089,-329.2802 603.098,-334.0866"/>
</g>
<!-- Show crop overlay -->
<g id="node44" class="node">
<title>Show crop overlay</title>
<polygon fill="none" stroke="#000000" points="616.5551,-180 495.0649,-180 495.0649,-144 616.5551,-144 616.5551,-180"/>
<text text-anchor="middle" x="555.81" y="-157.8" font-family="Times,serif" font-size="14.00" fill="#000000">Show crop overlay</text>
</g>
<!-- Nested in previous image&#45;&gt;Show crop overlay -->
<g id="edge53" class="edge">
<title>Nested in previous image&#45;&gt;Show crop overlay</title>
<path fill="none" stroke="#000000" d="M487.9765,-287.7735C488.8313,-268.8632 492.1382,-238.9073 503.81,-216 509.2026,-205.4164 517.3592,-195.5158 525.6237,-187.1564"/>
<polygon fill="#000000" stroke="#000000" points="528.0527,-189.6763 532.8475,-180.2285 523.2075,-184.6242 528.0527,-189.6763"/>
</g>
<!-- Display current layer of source image -->
<g id="node45" class="node">
<title>Display current layer of source image</title>
<polygon fill="none" stroke="#000000" points="740.3838,-252 513.2362,-252 513.2362,-216 740.3838,-216 740.3838,-252"/>
<text text-anchor="middle" x="626.81" y="-229.8" font-family="Times,serif" font-size="14.00" fill="#000000">Display current layer of source image</text>
</g>
<!-- Not nested&#45;&gt;Display current layer of source image -->
<g id="edge54" class="edge">
<title>Not nested&#45;&gt;Display current layer of source image</title>
<path fill="none" stroke="#000000" d="M625.3147,-287.8314C625.5286,-280.131 625.7829,-270.9743 626.0206,-262.4166"/>
<polygon fill="#000000" stroke="#000000" points="629.5194,-262.5066 626.2985,-252.4133 622.5221,-262.3122 629.5194,-262.5066"/>
</g>
<!-- Output crop position in the interface -->
<g id="node46" class="node">
<title>Output crop position in the interface</title>
<polygon fill="none" stroke="#000000" points="665.6463,-108 445.9737,-108 445.9737,-72 665.6463,-72 665.6463,-108"/>
<text text-anchor="middle" x="555.81" y="-85.8" font-family="Times,serif" font-size="14.00" fill="#000000">Output crop position in the interface</text>
</g>
<!-- Show crop overlay&#45;&gt;Output crop position in the interface -->
<g id="edge56" class="edge">
<title>Show crop overlay&#45;&gt;Output crop position in the interface</title>
<path fill="none" stroke="#000000" d="M555.81,-143.8314C555.81,-136.131 555.81,-126.9743 555.81,-118.4166"/>
<polygon fill="#000000" stroke="#000000" points="559.3101,-118.4132 555.81,-108.4133 552.3101,-118.4133 559.3101,-118.4132"/>
</g>
<!-- Display current layer of source image&#45;&gt;Show crop overlay -->
<g id="edge55" class="edge">
<title>Display current layer of source image&#45;&gt;Show crop overlay</title>
<path fill="none" stroke="#000000" d="M608.8937,-215.8314C600.4658,-207.2848 590.269,-196.9443 581.074,-187.6198"/>
<polygon fill="#000000" stroke="#000000" points="583.4811,-185.0761 573.9675,-180.4133 578.4969,-189.9912 583.4811,-185.0761"/>
</g>
<!-- Show crop on black background -->
<g id="node47" class="node">
<title>Show crop on black background</title>
<polygon fill="none" stroke="#000000" points="654.4841,-36 457.1359,-36 457.1359,0 654.4841,0 654.4841,-36"/>
<text text-anchor="middle" x="555.81" y="-13.8" font-family="Times,serif" font-size="14.00" fill="#000000">Show crop on black background</text>
</g>
<!-- Output crop position in the interface&#45;&gt;Show crop on black background -->
<g id="edge57" class="edge">
<title>Output crop position in the interface&#45;&gt;Show crop on black background</title>
<path fill="none" stroke="#000000" d="M555.81,-71.8314C555.81,-64.131 555.81,-54.9743 555.81,-46.4166"/>
<polygon fill="#000000" stroke="#000000" points="559.3101,-46.4132 555.81,-36.4133 552.3101,-46.4133 559.3101,-46.4132"/>
</g>
</g>
</svg>
