<?xml version="1.0" encoding="UTF-8" standalone="no"?>
<!DOCTYPE svg PUBLIC "-//W3C//DTD SVG 1.1//EN"
 "http://www.w3.org/Graphics/SVG/1.1/DTD/svg11.dtd">
<!-- Generated by graphviz version 2.40.1 (20161225.0304)
 -->
<!-- Title: AnalyzingImages Pages: 1 -->
<svg width="492pt" height="554pt"
 viewBox="0.00 0.00 491.98 553.60" xmlns="http://www.w3.org/2000/svg" xmlns:xlink="http://www.w3.org/1999/xlink">
<g id="graph0" class="graph" transform="scale(1 1) rotate(0) translate(4 549.6)">
<title>AnalyzingImages</title>
<polygon fill="#ffffff" stroke="transparent" points="-4,4 -4,-549.6 487.9759,-549.6 487.9759,4 -4,4"/>
<!-- Images object (contains source and crop images) -->
<g id="node1" class="node">
<title>Images object (contains source and crop images)</title>
<polygon fill="none" stroke="#000000" points="319.1468,-545.6 30.3652,-545.6 30.3652,-509.6 319.1468,-509.6 319.1468,-545.6"/>
<text text-anchor="middle" x="174.756" y="-523.4" font-family="Times,serif" font-size="14.00" fill="#000000">Images object (contains source and crop images)</text>
</g>
<!-- Search for crop -->
<g id="node2" class="node">
<title>Search for crop</title>
<polygon fill="none" stroke="#000000" points="226.0398,-473.6 123.4722,-473.6 123.4722,-437.6 226.0398,-437.6 226.0398,-473.6"/>
<text text-anchor="middle" x="174.756" y="-451.4" font-family="Times,serif" font-size="14.00" fill="#000000">Search for crop</text>
</g>
<!-- Images object (contains source and crop images)&#45;&gt;Search for crop -->
<g id="edge1" class="edge">
<title>Images object (contains source and crop images)&#45;&gt;Search for crop</title>
<path fill="none" stroke="#000000" d="M174.756,-509.4314C174.756,-501.731 174.756,-492.5743 174.756,-484.0166"/>
<polygon fill="#000000" stroke="#000000" points="178.2561,-484.0132 174.756,-474.0133 171.2561,-484.0133 178.2561,-484.0132"/>
</g>
<!-- 3 scans (completes if one finds the crop) -->
<g id="node3" class="node">
<title>3 scans (completes if one finds the crop)</title>
<polygon fill="none" stroke="#000000" points="295.8981,-401.6 53.6139,-401.6 53.6139,-365.6 295.8981,-365.6 295.8981,-401.6"/>
<text text-anchor="middle" x="174.756" y="-379.4" font-family="Times,serif" font-size="14.00" fill="#000000">3 scans (completes if one finds the crop)</text>
</g>
<!-- Search for crop&#45;&gt;3 scans (completes if one finds the crop) -->
<g id="edge2" class="edge">
<title>Search for crop&#45;&gt;3 scans (completes if one finds the crop)</title>
<path fill="none" stroke="#000000" d="M174.756,-437.4314C174.756,-429.731 174.756,-420.5743 174.756,-412.0166"/>
<polygon fill="#000000" stroke="#000000" points="178.2561,-412.0132 174.756,-402.0133 171.2561,-412.0133 178.2561,-412.0132"/>
</g>
<!-- 1) Default scan -->
<g id="node4" class="node">
<title>1) Default scan</title>
<polygon fill="none" stroke="#000000" points="101.2692,-329.6 .2428,-329.6 .2428,-293.6 101.2692,-293.6 101.2692,-329.6"/>
<text text-anchor="middle" x="50.756" y="-307.4" font-family="Times,serif" font-size="14.00" fill="#000000">1) Default scan</text>
</g>
<!-- 3 scans (completes if one finds the crop)&#45;&gt;1) Default scan -->
<g id="edge3" class="edge">
<title>3 scans (completes if one finds the crop)&#45;&gt;1) Default scan</title>
<path fill="none" stroke="#000000" d="M143.4656,-365.4314C127.4583,-356.1368 107.7974,-344.7208 90.7066,-334.7971"/>
<polygon fill="#000000" stroke="#000000" points="92.4418,-331.7575 82.0364,-329.7628 88.9268,-337.811 92.4418,-331.7575"/>
</g>
<!-- 2) Top axis scan -->
<g id="node5" class="node">
<title>2) Top axis scan</title>
<polygon fill="none" stroke="#000000" points="228.8929,-329.6 120.6191,-329.6 120.6191,-293.6 228.8929,-293.6 228.8929,-329.6"/>
<text text-anchor="middle" x="174.756" y="-307.4" font-family="Times,serif" font-size="14.00" fill="#000000">2) Top axis scan</text>
</g>
<!-- 3 scans (completes if one finds the crop)&#45;&gt;2) Top axis scan -->
<g id="edge4" class="edge">
<title>3 scans (completes if one finds the crop)&#45;&gt;2) Top axis scan</title>
<path fill="none" stroke="#000000" d="M174.756,-365.4314C174.756,-357.731 174.756,-348.5743 174.756,-340.0166"/>
<polygon fill="#000000" stroke="#000000" points="178.2561,-340.0132 174.756,-330.0133 171.2561,-340.0133 178.2561,-340.0132"/>
</g>
<!-- 3) Left axis scan -->
<g id="node6" class="node">
<title>3) Left axis scan</title>
<polygon fill="none" stroke="#000000" points="398.1586,-329.6 289.3534,-329.6 289.3534,-293.6 398.1586,-293.6 398.1586,-329.6"/>
<text text-anchor="middle" x="343.756" y="-307.4" font-family="Times,serif" font-size="14.00" fill="#000000">3) Left axis scan</text>
</g>
<!-- 3 scans (completes if one finds the crop)&#45;&gt;3) Left axis scan -->
<g id="edge5" class="edge">
<title>3 scans (completes if one finds the crop)&#45;&gt;3) Left axis scan</title>
<path fill="none" stroke="#000000" d="M217.4018,-365.4314C240.105,-355.759 268.2011,-343.7891 292.1302,-333.5944"/>
<polygon fill="#000000" stroke="#000000" points="293.5888,-336.7775 301.4168,-329.638 290.8451,-330.3376 293.5888,-336.7775"/>
</g>
<!-- Preprocess the crop -->
<g id="node7" class="node">
<title>Preprocess the crop</title>
<polygon fill="none" stroke="#000000" points="237.3738,-185.6 112.1382,-185.6 112.1382,-149.6 237.3738,-149.6 237.3738,-185.6"/>
<text text-anchor="middle" x="174.756" y="-163.4" font-family="Times,serif" font-size="14.00" fill="#000000">Preprocess the crop</text>
</g>
<!-- 1) Default scan&#45;&gt;Preprocess the crop -->
<g id="edge6" class="edge">
<title>1) Default scan&#45;&gt;Preprocess the crop</title>
<path fill="none" stroke="#000000" d="M49.9425,-293.5114C49.9885,-273.8849 52.8757,-242.5541 68.756,-221.6 78.8282,-208.3097 93.0914,-198.0311 107.9,-190.1866"/>
<polygon fill="#000000" stroke="#000000" points="109.7437,-193.1796 117.1583,-185.6116 106.6426,-186.904 109.7437,-193.1796"/>
</g>
<!-- Reslice image from the top axis -->
<g id="node9" class="node">
<title>Reslice image from the top axis</title>
<polygon fill="none" stroke="#000000" points="271.4303,-257.6 78.0817,-257.6 78.0817,-221.6 271.4303,-221.6 271.4303,-257.6"/>
<text text-anchor="middle" x="174.756" y="-235.4" font-family="Times,serif" font-size="14.00" fill="#000000">Reslice image from the top axis</text>
</g>
<!-- 2) Top axis scan&#45;&gt;Reslice image from the top axis -->
<g id="edge8" class="edge">
<title>2) Top axis scan&#45;&gt;Reslice image from the top axis</title>
<path fill="none" stroke="#000000" d="M174.756,-293.4314C174.756,-285.731 174.756,-276.5743 174.756,-268.0166"/>
<polygon fill="#000000" stroke="#000000" points="178.2561,-268.0132 174.756,-258.0133 171.2561,-268.0133 178.2561,-268.0132"/>
</g>
<!-- Reslice image from the left axis -->
<g id="node10" class="node">
<title>Reslice image from the left axis</title>
<polygon fill="none" stroke="#000000" points="484.1963,-257.6 289.3157,-257.6 289.3157,-221.6 484.1963,-221.6 484.1963,-257.6"/>
<text text-anchor="middle" x="386.756" y="-235.4" font-family="Times,serif" font-size="14.00" fill="#000000">Reslice image from the left axis</text>
</g>
<!-- 3) Left axis scan&#45;&gt;Reslice image from the left axis -->
<g id="edge10" class="edge">
<title>3) Left axis scan&#45;&gt;Reslice image from the left axis</title>
<path fill="none" stroke="#000000" d="M354.6067,-293.4314C359.4583,-285.3079 365.2777,-275.5637 370.624,-266.6118"/>
<polygon fill="#000000" stroke="#000000" points="373.6366,-268.3933 375.7592,-258.0133 367.6268,-264.8041 373.6366,-268.3933"/>
</g>
<!-- Scan the source image for the crop -->
<g id="node8" class="node">
<title>Scan the source image for the crop</title>
<polygon fill="none" stroke="#000000" points="280.1197,-113.6 69.3923,-113.6 69.3923,-77.6 280.1197,-77.6 280.1197,-113.6"/>
<text text-anchor="middle" x="174.756" y="-91.4" font-family="Times,serif" font-size="14.00" fill="#000000">Scan the source image for the crop</text>
</g>
<!-- Preprocess the crop&#45;&gt;Scan the source image for the crop -->
<g id="edge7" class="edge">
<title>Preprocess the crop&#45;&gt;Scan the source image for the crop</title>
<path fill="none" stroke="#000000" d="M174.756,-149.4314C174.756,-141.731 174.756,-132.5743 174.756,-124.0166"/>
<polygon fill="#000000" stroke="#000000" points="178.2561,-124.0132 174.756,-114.0133 171.2561,-124.0133 178.2561,-124.0132"/>
</g>
<!-- Return whether or not \nthe crop has been located -->
<g id="node11" class="node">
<title>Return whether or not \nthe crop has been located</title>
<polygon fill="none" stroke="#000000" points="253.7506,-41.4019 95.7614,-41.4019 95.7614,-.1981 253.7506,-.1981 253.7506,-41.4019"/>
<text text-anchor="middle" x="174.756" y="-25" font-family="Times,serif" font-size="14.00" fill="#000000">Return whether or not </text>
<text text-anchor="middle" x="174.756" y="-8.2" font-family="Times,serif" font-size="14.00" fill="#000000">the crop has been located</text>
</g>
<!-- Scan the source image for the crop&#45;&gt;Return whether or not \nthe crop has been located -->
<g id="edge12" class="edge">
<title>Scan the source image for the crop&#45;&gt;Return whether or not \nthe crop has been located</title>
<path fill="none" stroke="#000000" d="M174.756,-77.493C174.756,-69.8083 174.756,-60.6272 174.756,-51.9145"/>
<polygon fill="#000000" stroke="#000000" points="178.2561,-51.6515 174.756,-41.6515 171.2561,-51.6515 178.2561,-51.6515"/>
</g>
<!-- Reslice image from the top axis&#45;&gt;Preprocess the crop -->
<g id="edge9" class="edge">
<title>Reslice image from the top axis&#45;&gt;Preprocess the crop</title>
<path fill="none" stroke="#000000" d="M174.756,-221.4314C174.756,-213.731 174.756,-204.5743 174.756,-196.0166"/>
<polygon fill="#000000" stroke="#000000" points="178.2561,-196.0132 174.756,-186.0133 171.2561,-196.0133 178.2561,-196.0132"/>
</g>
<!-- Reslice image from the left axis&#45;&gt;Preprocess the crop -->
<g id="edge11" class="edge">
<title>Reslice image from the left axis&#45;&gt;Preprocess the crop</title>
<path fill="none" stroke="#000000" d="M333.5331,-221.5243C304.4254,-211.6387 268.1894,-199.3321 237.6866,-188.9726"/>
<polygon fill="#000000" stroke="#000000" points="238.5952,-185.5849 228.0008,-185.6831 236.3441,-192.2131 238.5952,-185.5849"/>
</g>
</g>
</svg>
