<?xml version="1.0" encoding="UTF-8" standalone="no"?>
<!DOCTYPE svg PUBLIC "-//W3C//DTD SVG 1.1//EN"
 "http://www.w3.org/Graphics/SVG/1.1/DTD/svg11.dtd">
<!-- Generated by graphviz version 2.40.1 (20161225.0304)
 -->
<!-- Title: BasicArchitecture Pages: 1 -->
<svg width="407pt" height="462pt"
 viewBox="0.00 0.00 407.27 462.00" xmlns="http://www.w3.org/2000/svg" xmlns:xlink="http://www.w3.org/1999/xlink">
<g id="graph0" class="graph" transform="scale(1 1) rotate(0) translate(4 458)">
<title>BasicArchitecture</title>
<polygon fill="#ffffff" stroke="transparent" points="-4,4 -4,-458 403.2655,-458 403.2655,4 -4,4"/>
<!-- On source image upload -->
<g id="node1" class="node">
<title>On source image upload</title>
<polygon fill="none" stroke="#000000" points="152.6856,-454 -.229,-454 -.229,-418 152.6856,-418 152.6856,-454"/>
<text text-anchor="middle" x="76.2283" y="-431.8" font-family="Times,serif" font-size="14.00" fill="#000000">On source image upload</text>
</g>
<!-- Update images object (stores the images) -->
<g id="node2" class="node">
<title>Update images object (stores the images)</title>
<polygon fill="none" stroke="#000000" points="281.257,-381 35.1996,-381 35.1996,-345 281.257,-345 281.257,-381"/>
<text text-anchor="middle" x="158.2283" y="-358.8" font-family="Times,serif" font-size="14.00" fill="#000000">Update images object (stores the images)</text>
</g>
<!-- On source image upload&#45;&gt;Update images object (stores the images) -->
<g id="edge1" class="edge">
<title>On source image upload&#45;&gt;Update images object (stores the images)</title>
<path fill="none" stroke="#000000" d="M96.498,-417.9551C106.6495,-408.9177 119.1021,-397.8319 130.1574,-387.9899"/>
<polygon fill="#000000" stroke="#000000" points="132.7658,-390.3539 137.9076,-381.0904 128.1113,-385.1255 132.7658,-390.3539"/>
</g>
<!-- Are the images valid? -->
<g id="node4" class="node">
<title>Are the images valid?</title>
<polygon fill="none" stroke="#000000" points="227.6814,-308 88.7752,-308 88.7752,-272 227.6814,-272 227.6814,-308"/>
<text text-anchor="middle" x="158.2283" y="-285.8" font-family="Times,serif" font-size="14.00" fill="#000000">Are the images valid?</text>
</g>
<!-- Update images object (stores the images)&#45;&gt;Are the images valid? -->
<g id="edge3" class="edge">
<title>Update images object (stores the images)&#45;&gt;Are the images valid?</title>
<path fill="none" stroke="#000000" d="M158.2283,-344.9551C158.2283,-336.8828 158.2283,-327.1764 158.2283,-318.1817"/>
<polygon fill="#000000" stroke="#000000" points="161.7284,-318.0903 158.2283,-308.0904 154.7284,-318.0904 161.7284,-318.0903"/>
</g>
<!-- On crop image upload -->
<g id="node3" class="node">
<title>On crop image upload</title>
<polygon fill="none" stroke="#000000" points="311.5258,-454 170.9308,-454 170.9308,-418 311.5258,-418 311.5258,-454"/>
<text text-anchor="middle" x="241.2283" y="-431.8" font-family="Times,serif" font-size="14.00" fill="#000000">On crop image upload</text>
</g>
<!-- On crop image upload&#45;&gt;Update images object (stores the images) -->
<g id="edge2" class="edge">
<title>On crop image upload&#45;&gt;Update images object (stores the images)</title>
<path fill="none" stroke="#000000" d="M220.7114,-417.9551C210.3363,-408.8299 197.5867,-397.6165 186.316,-387.7036"/>
<polygon fill="#000000" stroke="#000000" points="188.6172,-385.0665 178.7968,-381.0904 183.9942,-390.3228 188.6172,-385.0665"/>
</g>
<!-- Show error and \n wait for another image -->
<g id="node5" class="node">
<title>Show error and \n wait for another image</title>
<polygon fill="none" stroke="#000000" points="215.3432,-41.4019 69.1134,-41.4019 69.1134,-.1981 215.3432,-.1981 215.3432,-41.4019"/>
<text text-anchor="middle" x="142.2283" y="-25" font-family="Times,serif" font-size="14.00" fill="#000000">Show error and </text>
<text text-anchor="middle" x="142.2283" y="-8.2" font-family="Times,serif" font-size="14.00" fill="#000000"> wait for another image</text>
</g>
<!-- Are the images valid?&#45;&gt;Show error and \n wait for another image -->
<g id="edge4" class="edge">
<title>Are the images valid?&#45;&gt;Show error and \n wait for another image</title>
<path fill="none" stroke="#000000" d="M157.1537,-271.919C154.468,-226.7334 147.4387,-108.4645 144.0744,-51.8604"/>
<polygon fill="#000000" stroke="#000000" points="147.559,-51.4953 143.4717,-41.7206 140.5713,-51.9107 147.559,-51.4953"/>
<text text-anchor="middle" x="159.7816" y="-152.6" font-family="Times,serif" font-size="14.00" fill="#000000">No</text>
</g>
<!-- Analyze the images -->
<g id="node6" class="node">
<title>Analyze the images</title>
<polygon fill="none" stroke="#000000" points="296.6301,-219.2 169.8265,-219.2 169.8265,-183.2 296.6301,-183.2 296.6301,-219.2"/>
<text text-anchor="middle" x="233.2283" y="-197" font-family="Times,serif" font-size="14.00" fill="#000000">Analyze the images</text>
</g>
<!-- Are the images valid?&#45;&gt;Analyze the images -->
<g id="edge5" class="edge">
<title>Are the images valid?&#45;&gt;Analyze the images</title>
<path fill="none" stroke="#000000" d="M173.7683,-271.6006C184.6001,-258.7757 199.2062,-241.4822 211.231,-227.2448"/>
<polygon fill="#000000" stroke="#000000" points="214.1862,-229.1702 217.9648,-219.272 208.8383,-224.6534 214.1862,-229.1702"/>
<text text-anchor="middle" x="214.1112" y="-241.4" font-family="Times,serif" font-size="14.00" fill="#000000">Yes</text>
</g>
<!-- Match found? -->
<g id="node7" class="node">
<title>Match found?</title>
<polygon fill="none" stroke="#000000" points="280.368,-130.4 186.0886,-130.4 186.0886,-94.4 280.368,-94.4 280.368,-130.4"/>
<text text-anchor="middle" x="233.2283" y="-108.2" font-family="Times,serif" font-size="14.00" fill="#000000">Match found?</text>
</g>
<!-- Analyze the images&#45;&gt;Match found? -->
<g id="edge6" class="edge">
<title>Analyze the images&#45;&gt;Match found?</title>
<path fill="none" stroke="#000000" d="M233.2283,-182.8006C233.2283,-170.6949 233.2283,-154.6076 233.2283,-140.8674"/>
<polygon fill="#000000" stroke="#000000" points="236.7284,-140.472 233.2283,-130.472 229.7284,-140.4721 236.7284,-140.472"/>
</g>
<!-- Match found?&#45;&gt;Show error and \n wait for another image -->
<g id="edge7" class="edge">
<title>Match found?&#45;&gt;Show error and \n wait for another image</title>
<path fill="none" stroke="#000000" d="M215.2496,-94.3028C202.3699,-81.3382 184.7775,-63.6297 170.0876,-48.843"/>
<polygon fill="#000000" stroke="#000000" points="172.2416,-46.045 162.7107,-41.4175 167.2756,-50.9785 172.2416,-46.045"/>
<text text-anchor="middle" x="204.7816" y="-63.8" font-family="Times,serif" font-size="14.00" fill="#000000">No</text>
</g>
<!-- Output the crop&#39;s location \n and transformation data -->
<g id="node8" class="node">
<title>Output the crop&#39;s location \n and transformation data</title>
<polygon fill="none" stroke="#000000" points="399.3027,-41.4019 233.1539,-41.4019 233.1539,-.1981 399.3027,-.1981 399.3027,-41.4019"/>
<text text-anchor="middle" x="316.2283" y="-25" font-family="Times,serif" font-size="14.00" fill="#000000">Output the crop&#39;s location </text>
<text text-anchor="middle" x="316.2283" y="-8.2" font-family="Times,serif" font-size="14.00" fill="#000000"> and transformation data</text>
</g>
<!-- Match found?&#45;&gt;Output the crop&#39;s location \n and transformation data -->
<g id="edge8" class="edge">
<title>Match found?&#45;&gt;Output the crop&#39;s location \n and transformation data</title>
<path fill="none" stroke="#000000" d="M249.6264,-94.3028C261.3739,-81.3382 277.4197,-63.6297 290.8181,-48.843"/>
<polygon fill="#000000" stroke="#000000" points="293.4255,-51.178 297.5465,-41.4175 288.2382,-46.4777 293.4255,-51.178"/>
<text text-anchor="middle" x="290.1112" y="-63.8" font-family="Times,serif" font-size="14.00" fill="#000000">Yes</text>
</g>
</g>
</svg>
