<?xml version="1.0" encoding="UTF-8" standalone="no"?>
<!DOCTYPE svg PUBLIC "-//W3C//DTD SVG 1.1//EN"
 "http://www.w3.org/Graphics/SVG/1.1/DTD/svg11.dtd">
<!-- Generated by graphviz version 2.40.1 (20161225.0304)
 -->
<!-- Title: PreprocessCrop Pages: 1 -->
<svg width="414pt" height="632pt"
 viewBox="0.00 0.00 413.81 632.40" xmlns="http://www.w3.org/2000/svg" xmlns:xlink="http://www.w3.org/1999/xlink">
<g id="graph0" class="graph" transform="scale(1 1) rotate(0) translate(4 628.4)">
<title>PreprocessCrop</title>
<polygon fill="#ffffff" stroke="transparent" points="-4,4 -4,-628.4 409.8069,-628.4 409.8069,4 -4,4"/>
<!-- Crop -->
<g id="node1" class="node">
<title>Crop</title>
<polygon fill="none" stroke="#000000" points="177.58,-624.4 123.58,-624.4 123.58,-588.4 177.58,-588.4 177.58,-624.4"/>
<text text-anchor="middle" x="150.58" y="-602.2" font-family="Times,serif" font-size="14.00" fill="#000000">Crop</text>
</g>
<!-- Is the image rotated? -->
<g id="node2" class="node">
<title>Is the image rotated?</title>
<polygon fill="none" stroke="#000000" points="217.0864,-551.4 84.0736,-551.4 84.0736,-515.4 217.0864,-515.4 217.0864,-551.4"/>
<text text-anchor="middle" x="150.58" y="-529.2" font-family="Times,serif" font-size="14.00" fill="#000000">Is the image rotated?</text>
</g>
<!-- Crop&#45;&gt;Is the image rotated? -->
<g id="edge1" class="edge">
<title>Crop&#45;&gt;Is the image rotated?</title>
<path fill="none" stroke="#000000" d="M150.58,-588.3551C150.58,-580.2828 150.58,-570.5764 150.58,-561.5817"/>
<polygon fill="#000000" stroke="#000000" points="154.0801,-561.4903 150.58,-551.4904 147.0801,-561.4904 154.0801,-561.4903"/>
</g>
<!-- Preprocess rotated crop -->
<g id="node3" class="node">
<title>Preprocess rotated crop</title>
<polygon fill="none" stroke="#000000" stroke-width="2" points="179.4635,-462.6 31.6965,-462.6 31.6965,-426.6 179.4635,-426.6 179.4635,-462.6"/>
<text text-anchor="middle" x="105.58" y="-440.4" font-family="Times,serif" font-size="14.00" fill="#000000">Preprocess rotated crop</text>
</g>
<!-- Is the image rotated?&#45;&gt;Preprocess rotated crop -->
<g id="edge2" class="edge">
<title>Is the image rotated?&#45;&gt;Preprocess rotated crop</title>
<path fill="none" stroke="#000000" d="M121.3977,-515.3976C115.5469,-510.3378 110.1722,-504.3003 106.8142,-497.4 103.2433,-490.0622 102.0061,-481.4448 101.9115,-473.3244"/>
<polygon fill="#000000" stroke="#000000" points="105.4188,-473.2243 102.3453,-463.0851 98.4251,-472.928 105.4188,-473.2243"/>
<text text-anchor="middle" x="118.4629" y="-484.8" font-family="Times,serif" font-size="14.00" fill="#000000">Yes</text>
</g>
<!-- Is the image rotated?&#45;&gt;Preprocess rotated crop -->
<g id="edge3" class="edge">
<title>Is the image rotated?&#45;&gt;Preprocess rotated crop</title>
<path fill="none" stroke="#000000" d="M143.8064,-514.9599C139.7964,-504.6529 134.3764,-491.6889 128.58,-480.6 127.0339,-477.6422 125.3207,-474.6119 123.5469,-471.626"/>
<polygon fill="#000000" stroke="#000000" points="126.3931,-469.5743 118.1501,-462.9182 120.4431,-473.2619 126.3931,-469.5743"/>
<text text-anchor="middle" x="156.4005" y="-484.8" font-family="Times,serif" font-size="14.00" fill="#000000">(angle)</text>
</g>
<!-- Preprocess normal crop -->
<g id="node4" class="node">
<title>Preprocess normal crop</title>
<polygon fill="none" stroke="#000000" stroke-width="2" points="345.7485,-462.6 197.4115,-462.6 197.4115,-426.6 345.7485,-426.6 345.7485,-462.6"/>
<text text-anchor="middle" x="271.58" y="-440.4" font-family="Times,serif" font-size="14.00" fill="#000000">Preprocess normal crop</text>
</g>
<!-- Is the image rotated?&#45;&gt;Preprocess normal crop -->
<g id="edge4" class="edge">
<title>Is the image rotated?&#45;&gt;Preprocess normal crop</title>
<path fill="none" stroke="#000000" d="M175.3581,-515.2157C193.6286,-501.8073 218.6707,-483.4293 238.6278,-468.7831"/>
<polygon fill="#000000" stroke="#000000" points="240.8438,-471.4982 246.835,-462.76 236.7022,-465.8549 240.8438,-471.4982"/>
<text text-anchor="middle" x="230.1333" y="-484.8" font-family="Times,serif" font-size="14.00" fill="#000000">No</text>
</g>
<!-- Store the first \nlayer of the crop -->
<g id="node5" class="node">
<title>Store the first \nlayer of the crop</title>
<polygon fill="none" stroke="#000000" points="159.7015,-389.4019 51.4585,-389.4019 51.4585,-348.1981 159.7015,-348.1981 159.7015,-389.4019"/>
<text text-anchor="middle" x="105.58" y="-373" font-family="Times,serif" font-size="14.00" fill="#000000">Store the first </text>
<text text-anchor="middle" x="105.58" y="-356.2" font-family="Times,serif" font-size="14.00" fill="#000000">layer of the crop</text>
</g>
<!-- Preprocess rotated crop&#45;&gt;Store the first \nlayer of the crop -->
<g id="edge5" class="edge">
<title>Preprocess rotated crop&#45;&gt;Store the first \nlayer of the crop</title>
<path fill="none" stroke="#000000" d="M105.58,-426.2509C105.58,-418.315 105.58,-408.8041 105.58,-399.8258"/>
<polygon fill="#000000" stroke="#000000" points="109.0801,-399.6568 105.58,-389.6568 102.0801,-399.6569 109.0801,-399.6568"/>
</g>
<!-- Take a crop of the current crop -->
<g id="node9" class="node">
<title>Take a crop of the current crop</title>
<polygon fill="none" stroke="#000000" points="367.4339,-386.8 177.7261,-386.8 177.7261,-350.8 367.4339,-350.8 367.4339,-386.8"/>
<text text-anchor="middle" x="272.58" y="-364.6" font-family="Times,serif" font-size="14.00" fill="#000000">Take a crop of the current crop</text>
</g>
<!-- Preprocess normal crop&#45;&gt;Take a crop of the current crop -->
<g id="edge9" class="edge">
<title>Preprocess normal crop&#45;&gt;Take a crop of the current crop</title>
<path fill="none" stroke="#000000" d="M271.8221,-426.2509C271.9375,-417.4989 272.0783,-406.8314 272.207,-397.0752"/>
<polygon fill="#000000" stroke="#000000" points="275.7078,-397.0254 272.3402,-386.9801 268.7084,-396.933 275.7078,-397.0254"/>
</g>
<!-- Rotate the crop by \n&#45;1 * angle -->
<g id="node6" class="node">
<title>Rotate the crop by \n&#45;1 * angle</title>
<polygon fill="none" stroke="#000000" points="166.6083,-310.8019 44.5517,-310.8019 44.5517,-269.5981 166.6083,-269.5981 166.6083,-310.8019"/>
<text text-anchor="middle" x="105.58" y="-294.4" font-family="Times,serif" font-size="14.00" fill="#000000">Rotate the crop by </text>
<text text-anchor="middle" x="105.58" y="-277.6" font-family="Times,serif" font-size="14.00" fill="#000000">&#45;1 * angle</text>
</g>
<!-- Store the first \nlayer of the crop&#45;&gt;Rotate the crop by \n&#45;1 * angle -->
<g id="edge6" class="edge">
<title>Store the first \nlayer of the crop&#45;&gt;Rotate the crop by \n&#45;1 * angle</title>
<path fill="none" stroke="#000000" d="M105.58,-348.1488C105.58,-339.9105 105.58,-330.2489 105.58,-321.202"/>
<polygon fill="#000000" stroke="#000000" points="109.0801,-320.9862 105.58,-310.9862 102.0801,-320.9862 109.0801,-320.9862"/>
</g>
<!-- Crop a usable section \nfrom the newly straightened image -->
<g id="node7" class="node">
<title>Crop a usable section \nfrom the newly straightened image</title>
<polygon fill="none" stroke="#000000" points="211.2401,-232.2019 -.0801,-232.2019 -.0801,-190.9981 211.2401,-190.9981 211.2401,-232.2019"/>
<text text-anchor="middle" x="105.58" y="-215.8" font-family="Times,serif" font-size="14.00" fill="#000000">Crop a usable section </text>
<text text-anchor="middle" x="105.58" y="-199" font-family="Times,serif" font-size="14.00" fill="#000000">from the newly straightened image</text>
</g>
<!-- Rotate the crop by \n&#45;1 * angle&#45;&gt;Crop a usable section \nfrom the newly straightened image -->
<g id="edge7" class="edge">
<title>Rotate the crop by \n&#45;1 * angle&#45;&gt;Crop a usable section \nfrom the newly straightened image</title>
<path fill="none" stroke="#000000" d="M105.58,-269.5488C105.58,-261.3105 105.58,-251.6489 105.58,-242.602"/>
<polygon fill="#000000" stroke="#000000" points="109.0801,-242.3862 105.58,-232.3862 102.0801,-242.3862 109.0801,-242.3862"/>
</g>
<!-- final -->
<g id="node8" class="node">
<title>final</title>
<polygon fill="none" stroke="#000000" stroke-width="2" points="289.9546,-154.0014 55.2054,-154.0014 55.2054,-95.1986 289.9546,-95.1986 289.9546,-154.0014"/>
<text text-anchor="middle" x="172.58" y="-137.2" font-family="Times,serif" font-size="14.00" fill="#000000">Add attributes to the image object, </text>
<text text-anchor="middle" x="172.58" y="-120.4" font-family="Times,serif" font-size="14.00" fill="#000000">and copy it to match the </text>
<text text-anchor="middle" x="172.58" y="-103.6" font-family="Times,serif" font-size="14.00" fill="#000000">number of layers of the original image.</text>
</g>
<!-- Crop a usable section \nfrom the newly straightened image&#45;&gt;final -->
<g id="edge8" class="edge">
<title>Crop a usable section \nfrom the newly straightened image&#45;&gt;final</title>
<path fill="none" stroke="#000000" d="M121.4581,-190.9822C128.1091,-182.3458 136.0556,-172.0272 143.6784,-162.1289"/>
<polygon fill="#000000" stroke="#000000" points="146.6413,-164.0179 149.9698,-153.9595 141.0953,-159.7468 146.6413,-164.0179"/>
</g>
<!-- Update the old crop \nto the new preprocessed crop \n(images object) -->
<g id="node11" class="node">
<title>Update the old crop \nto the new preprocessed crop \n(images object)</title>
<polygon fill="none" stroke="#000000" points="263.8412,-58.6014 81.3188,-58.6014 81.3188,.2014 263.8412,.2014 263.8412,-58.6014"/>
<text text-anchor="middle" x="172.58" y="-41.8" font-family="Times,serif" font-size="14.00" fill="#000000">Update the old crop </text>
<text text-anchor="middle" x="172.58" y="-25" font-family="Times,serif" font-size="14.00" fill="#000000">to the new preprocessed crop </text>
<text text-anchor="middle" x="172.58" y="-8.2" font-family="Times,serif" font-size="14.00" fill="#000000">(images object)</text>
</g>
<!-- final&#45;&gt;Update the old crop \nto the new preprocessed crop \n(images object) -->
<g id="edge12" class="edge">
<title>final&#45;&gt;Update the old crop \nto the new preprocessed crop \n(images object)</title>
<path fill="none" stroke="#000000" d="M172.58,-95.1984C172.58,-86.8562 172.58,-77.634 172.58,-68.7943"/>
<polygon fill="#000000" stroke="#000000" points="176.0801,-68.6687 172.58,-58.6687 169.0801,-68.6688 176.0801,-68.6687"/>
</g>
<!-- Take a crop of the current crop&#45;&gt;final -->
<g id="edge10" class="edge">
<title>Take a crop of the current crop&#45;&gt;final</title>
<path fill="none" stroke="#000000" d="M268.0913,-350.5341C258.2807,-311.1675 234.6803,-219.5633 220.58,-190.8 215.7972,-181.0435 209.5836,-171.2035 203.2224,-162.2019"/>
<polygon fill="#000000" stroke="#000000" points="205.8486,-159.8639 197.1201,-153.8586 200.1986,-163.9964 205.8486,-159.8639"/>
</g>
<!-- Removes excess data \nand processing time -->
<g id="node10" class="node">
<title>Removes excess data \nand processing time</title>
<polygon fill="none" stroke="#000000" stroke-dasharray="1,5" points="406.0345,-310.8019 267.1255,-310.8019 267.1255,-269.5981 406.0345,-269.5981 406.0345,-310.8019"/>
<text text-anchor="middle" x="336.58" y="-294.4" font-family="Times,serif" font-size="14.00" fill="#000000">Removes excess data </text>
<text text-anchor="middle" x="336.58" y="-277.6" font-family="Times,serif" font-size="14.00" fill="#000000">and processing time</text>
</g>
<!-- Take a crop of the current crop&#45;&gt;Removes excess data \nand processing time -->
<g id="edge11" class="edge">
<title>Take a crop of the current crop&#45;&gt;Removes excess data \nand processing time</title>
<path fill="none" stroke="#000000" d="M287.4238,-350.57C295.1333,-341.1018 304.729,-329.317 313.3908,-318.6793"/>
<polygon fill="#000000" stroke="#000000" points="316.1856,-320.79 319.7857,-310.8255 310.7575,-316.3701 316.1856,-320.79"/>
</g>
</g>
</svg>
